<svg width="24" height="24" viewBox="0 0 24 24" fill="none" xmlns="http://www.w3.org/2000/svg">
<path d="M12.0021 17.0024C12.2621 17.0024 12.4833 16.9112 12.6658 16.7287C12.8483 16.5462 12.9396 16.3249 12.9396 16.0649C12.9396 15.8049 12.8483 15.5837 12.6658 15.4012C12.4833 15.2187 12.2621 15.1274 12.0021 15.1274C11.7421 15.1274 11.5208 15.2187 11.3383 15.4012C11.1558 15.5837 11.0646 15.8049 11.0646 16.0649C11.0646 16.3249 11.1558 16.5462 11.3383 16.7287C11.5208 16.9112 11.7421 17.0024 12.0021 17.0024ZM12.0021 13.2524C12.2621 13.2524 12.4833 13.1612 12.6658 12.9787C12.8483 12.7962 12.9396 12.5749 12.9396 12.3149V7.93994C12.9396 7.67994 12.8483 7.45869 12.6658 7.27619C12.4833 7.09369 12.2621 7.00244 12.0021 7.00244C11.7421 7.00244 11.5208 7.09369 11.3383 7.27619C11.1558 7.45869 11.0646 7.67994 11.0646 7.93994V12.3149C11.0646 12.5749 11.1558 12.7962 11.3383 12.9787C11.5208 13.1612 11.7421 13.2524 12.0021 13.2524ZM12.0021 22.0024C10.6304 22.0024 9.33708 21.742 8.12208 21.2212C6.90707 20.7004 5.84374 19.9841 4.93208 19.0724C4.02041 18.1608 3.30416 17.0974 2.78333 15.8824C2.26249 14.6674 2.00208 13.3741 2.00208 12.0024C2.00208 10.6133 2.26249 9.31536 2.78333 8.10869C3.30416 6.90286 4.02041 5.84411 4.93208 4.93244C5.84374 4.02077 6.90707 3.30452 8.12208 2.78369C9.33708 2.26286 10.6304 2.00244 12.0021 2.00244C13.3912 2.00244 14.6892 2.26286 15.8958 2.78369C17.1017 3.30452 18.1604 4.02077 19.0721 4.93244C19.9837 5.84411 20.7 6.90286 21.2208 8.10869C21.7417 9.31536 22.0021 10.6133 22.0021 12.0024C22.0021 13.3741 21.7417 14.6674 21.2208 15.8824C20.7 17.0974 19.9837 18.1608 19.0721 19.0724C18.1604 19.9841 17.1017 20.7004 15.8958 21.2212C14.6892 21.742 13.3912 22.0024 12.0021 22.0024ZM12.0021 20.1274C14.2587 20.1274 16.1771 19.3374 17.7571 17.7574C19.3371 16.1774 20.1271 14.2591 20.1271 12.0024C20.1271 9.74577 19.3371 7.82744 17.7571 6.24744C16.1771 4.66744 14.2587 3.87744 12.0021 3.87744C9.74541 3.87744 7.82708 4.66744 6.24708 6.24744C4.66707 7.82744 3.87708 9.74577 3.87708 12.0024C3.87708 14.2591 4.66707 16.1774 6.24708 17.7574C7.82708 19.3374 9.74541 20.1274 12.0021 20.1274Z" fill="currentColor"/>
</svg>
